<?xml version="1.0" encoding="UTF-8"?>
<svg xmlns="http://www.w3.org/2000/svg" xmlns:xlink="http://www.w3.org/1999/xlink" width="302.39pt" height="302.39pt" viewBox="0 0 302.39 302.39" version="1.1">
<defs>
<clipPath id="clip1">
  <path d="M 37 181 L 264 181 L 264 280 L 37 280 Z M 37 181 "/>
</clipPath>
<clipPath id="clip2">
  <path d="M 278.558594 151.195313 C 278.558594 222.085938 221.089844 279.558594 150.195313 279.558594 C 79.300781 279.558594 21.832031 222.085938 21.832031 151.195313 C 21.832031 80.300781 79.300781 22.832031 150.195313 22.832031 C 221.089844 22.832031 278.558594 80.300781 278.558594 151.195313 "/>
</clipPath>
<clipPath id="clip3">
  <path d="M 35 178 L 266 178 L 266 280 L 35 280 Z M 35 178 "/>
</clipPath>
<clipPath id="clip4">
  <path d="M 278.558594 151.195313 C 278.558594 222.085938 221.089844 279.558594 150.195313 279.558594 C 79.300781 279.558594 21.832031 222.085938 21.832031 151.195313 C 21.832031 80.300781 79.300781 22.832031 150.195313 22.832031 C 221.089844 22.832031 278.558594 80.300781 278.558594 151.195313 "/>
</clipPath>
<clipPath id="clip5">
  <path d="M 105 69 L 197 69 L 197 160 L 105 160 Z M 105 69 "/>
</clipPath>
<clipPath id="clip6">
  <path d="M 278.558594 151.195313 C 278.558594 222.085938 221.089844 279.558594 150.195313 279.558594 C 79.300781 279.558594 21.832031 222.085938 21.832031 151.195313 C 21.832031 80.300781 79.300781 22.832031 150.195313 22.832031 C 221.089844 22.832031 278.558594 80.300781 278.558594 151.195313 "/>
</clipPath>
<clipPath id="clip7">
  <path d="M 103 66 L 200 66 L 200 163 L 103 163 Z M 103 66 "/>
</clipPath>
<clipPath id="clip8">
  <path d="M 278.558594 151.195313 C 278.558594 222.085938 221.089844 279.558594 150.195313 279.558594 C 79.300781 279.558594 21.832031 222.085938 21.832031 151.195313 C 21.832031 80.300781 79.300781 22.832031 150.195313 22.832031 C 221.089844 22.832031 278.558594 80.300781 278.558594 151.195313 "/>
</clipPath>
</defs>
<g id="surface1">
<path style=" stroke:none;fill-rule:nonzero;fill:rgb(26.298523%,37.998962%,67.799377%);fill-opacity:1;" d="M 299.890625 151.195313 L 297.390625 151.195313 C 297.390625 191.574219 281.03125 228.105469 254.570313 254.570313 C 228.105469 281.03125 191.574219 297.390625 151.195313 297.390625 C 110.816406 297.390625 74.285156 281.03125 47.820313 254.570313 C 21.359375 228.105469 5 191.574219 5 151.195313 C 5 110.816406 21.359375 74.28125 47.820313 47.820313 C 74.285156 21.359375 110.816406 5 151.195313 5 C 191.574219 5 228.105469 21.359375 254.570313 47.820313 C 281.03125 74.28125 297.390625 110.816406 297.390625 151.195313 L 302.390625 151.195313 C 302.390625 67.691406 234.699219 0 151.195313 0 C 67.691406 0 0 67.691406 0 151.195313 C 0 234.699219 67.691406 302.386719 151.195313 302.390625 C 234.699219 302.386719 302.390625 234.699219 302.390625 151.195313 L 299.890625 151.195313 "/>
<path style=" stroke:none;fill-rule:nonzero;fill:rgb(88.598633%,88.999939%,89.399719%);fill-opacity:1;" d="M 150.195313 279.558594 C 79.300781 279.558594 21.832031 222.085938 21.832031 151.195313 C 21.832031 80.300781 79.300781 22.832031 150.195313 22.832031 C 221.089844 22.832031 278.558594 80.300781 278.558594 151.195313 C 278.558594 222.085938 221.089844 279.558594 150.195313 279.558594 "/>
<g clip-path="url(#clip1)" clip-rule="nonzero">
<g clip-path="url(#clip2)" clip-rule="nonzero">
<path style=" stroke:none;fill-rule:nonzero;fill:rgb(100%,100%,100%);fill-opacity:1;" d="M 39.316406 231.941406 C 66.570313 200.835938 106.589844 181.195313 151.195313 181.195313 C 195.246094 181.195313 234.824219 200.351563 262.050781 230.785156 C 273.765625 243.878906 212.40625 290.066406 151.195313 290.394531 C 89.429688 290.726563 27.804688 245.082031 39.316406 231.941406 "/>
</g>
</g>
<g clip-path="url(#clip3)" clip-rule="nonzero">
<g clip-path="url(#clip4)" clip-rule="nonzero">
<path style=" stroke:none;fill-rule:nonzero;fill:rgb(26.298523%,37.998962%,67.799377%);fill-opacity:1;" d="M 39.316406 231.941406 L 41.199219 233.589844 C 68.003906 203 107.332031 183.695313 151.195313 183.695313 C 194.511719 183.695313 233.410156 202.523438 260.1875 232.453125 C 260.472656 232.773438 260.660156 233.09375 260.792969 233.453125 C 260.925781 233.8125 260.996094 234.222656 261 234.71875 C 261 235.398438 260.851563 236.246094 260.5 237.234375 C 259.847656 239.082031 258.476563 241.378906 256.441406 243.875 C 252.882813 248.253906 247.320313 253.257813 240.296875 258.21875 C 229.761719 265.671875 215.925781 273.070313 200.507813 278.601563 C 185.089844 284.136719 168.082031 287.808594 151.183594 287.894531 C 150.964844 287.898438 150.742188 287.898438 150.523438 287.898438 C 122.855469 287.910156 95.027344 278.496094 74.25 267.054688 C 63.863281 261.347656 55.234375 255.128906 49.300781 249.4375 C 46.335938 246.601563 44.050781 243.890625 42.558594 241.515625 C 41.8125 240.328125 41.265625 239.230469 40.917969 238.261719 C 40.566406 237.289063 40.417969 236.457031 40.417969 235.789063 C 40.421875 235.308594 40.492188 234.910156 40.617188 234.5625 C 40.742188 234.214844 40.921875 233.902344 41.199219 233.589844 L 39.316406 231.941406 L 37.4375 230.292969 C 36.765625 231.058594 36.246094 231.933594 35.910156 232.871094 C 35.574219 233.808594 35.417969 234.796875 35.417969 235.789063 C 35.421875 237.171875 35.710938 238.5625 36.210938 239.953125 C 37.15625 242.5625 38.832031 245.222656 41.101563 247.988281 C 45.085938 252.816406 50.941406 257.960938 58.246094 263.042969 C 69.195313 270.65625 83.402344 278.097656 99.304688 283.660156 C 115.207031 289.21875 132.804688 292.894531 150.523438 292.898438 C 150.753906 292.898438 150.980469 292.898438 151.210938 292.894531 C 179.828125 292.730469 208.226563 282.8125 229.601563 270.839844 C 240.292969 264.839844 249.226563 258.332031 255.582031 252.15625 C 258.761719 249.066406 261.300781 246.0625 263.097656 243.175781 C 263.996094 241.730469 264.707031 240.316406 265.210938 238.910156 C 265.707031 237.507813 265.996094 236.109375 266 234.71875 C 266 233.707031 265.839844 232.695313 265.492188 231.742188 C 265.144531 230.785156 264.605469 229.890625 263.914063 229.117188 C 236.238281 198.175781 195.980469 178.695313 151.195313 178.695313 C 105.847656 178.695313 65.140625 198.671875 37.4375 230.292969 L 39.316406 231.941406 "/>
</g>
</g>
<g clip-path="url(#clip5)" clip-rule="nonzero">
<g clip-path="url(#clip6)" clip-rule="nonzero">
<path style=" stroke:none;fill-rule:nonzero;fill:rgb(100%,100%,100%);fill-opacity:1;" d="M 196.558594 114.554688 C 196.558594 139.609375 176.246094 159.917969 151.195313 159.917969 C 126.144531 159.917969 105.832031 139.609375 105.832031 114.554688 C 105.832031 89.503906 126.144531 69.191406 151.195313 69.191406 C 176.246094 69.191406 196.558594 89.503906 196.558594 114.554688 "/>
</g>
</g>
<g clip-path="url(#clip7)" clip-rule="nonzero">
<g clip-path="url(#clip8)" clip-rule="nonzero">
<path style=" stroke:none;fill-rule:nonzero;fill:rgb(26.298523%,37.998962%,67.799377%);fill-opacity:1;" d="M 196.558594 114.554688 L 194.058594 114.554688 C 194.054688 126.398438 189.265625 137.101563 181.503906 144.863281 C 173.738281 152.625 163.039063 157.417969 151.195313 157.417969 C 139.351563 157.417969 128.652344 152.625 120.886719 144.863281 C 113.128906 137.101563 108.335938 126.398438 108.332031 114.554688 C 108.335938 102.710938 113.128906 92.011719 120.886719 84.246094 C 128.652344 76.488281 139.351563 71.695313 151.195313 71.691406 C 163.039063 71.695313 173.738281 76.488281 181.503906 84.246094 C 189.265625 92.011719 194.054688 102.710938 194.058594 114.554688 L 199.058594 114.554688 C 199.054688 88.121094 177.628906 66.695313 151.195313 66.691406 C 124.761719 66.695313 103.335938 88.121094 103.332031 114.554688 C 103.335938 140.992188 124.761719 162.417969 151.195313 162.417969 C 177.628906 162.417969 199.054688 140.992188 199.058594 114.554688 L 196.558594 114.554688 "/>
</g>
</g>
</g>
</svg>
